# xmcd
# 
# Track frame offsets:
#   150
#   17052
#   32020
#   47997
#   62447
#   77855
#   93322
#   112775
#   129127
#   147710
#   166605
#   183467
#   199322
#   214377
# 
# Disc length: 3139 seconds
# 
# Revision: 1
# Processed by: cddbd v1.5.1PL2 Copyright (c) Steve Scherf et al.
# Submitted via: Synapstar 1.0 
# 
DISCID=be0c410e
DTITLE=Various Artist - SD048 - Country Hits Today
DYEAR=1900
DGENRE=Country
TTITLE0=Shania Twain - You're Still The One
TTITLE1=Alabama - She's Got That Look In Her Eyes
TTITLE2=Faith Hill - This Kiss
TTITLE3=Martina McBride - Valentine
TTITLE4=Lonestar - Say When
TTITLE5=Tracy Byrd - I'm From The Country
TTITLE6=Sawyer Brown - Another Side
TTITLE7=David Kersh - If I Never Stop Loving You
TTITLE8=Kenny Chesney - That's Why I'm Here
TTITLE9=Mila Mason - Closer To Heaven
TTITLE10=The Mavericks - To Be With You
TTITLE11=Daryle Singletary - The Note
TTITLE12=Matraca Berg - Back In The Saddle
TTITLE13=Lee Roy Parnell - All That Matters Anymore
EXTD=MediaType: Karaoke CD+G Producer: StarDisc
EXTT0=
EXTT1=
EXTT2=
EXTT3=
EXTT4=
EXTT5=
EXTT6=
EXTT7=
EXTT8=
EXTT9=
EXTT10=
EXTT11=
EXTT12=
EXTT13=
PLAYORDER=
